<svg id="visual" viewBox="0 0 1920 170" width="1920" height="170" xmlns="http://www.w3.org/2000/svg" xmlns:xlink="http://www.w3.org/1999/xlink" version="1.1"><path d="M0 104L24.7 97.8C49.3 91.7 98.7 79.3 147.8 80.5C197 81.7 246 96.3 295.2 95.2C344.3 94 393.7 77 443 68.8C492.3 60.7 541.7 61.3 590.8 61.3C640 61.3 689 60.7 738.2 63C787.3 65.3 836.7 70.7 886 77.7C935.3 84.7 984.7 93.3 1034 91.5C1083.3 89.7 1132.7 77.3 1181.8 75.5C1231 73.7 1280 82.3 1329.2 86.2C1378.3 90 1427.7 89 1477 92.8C1526.3 96.7 1575.7 105.3 1624.8 102.3C1674 99.3 1723 84.7 1772.2 83.7C1821.3 82.7 1870.7 95.3 1895.3 101.7L1920 108L1920 0L1895.3 0C1870.7 0 1821.3 0 1772.2 0C1723 0 1674 0 1624.8 0C1575.7 0 1526.3 0 1477 0C1427.7 0 1378.3 0 1329.2 0C1280 0 1231 0 1181.8 0C1132.7 0 1083.3 0 1034 0C984.7 0 935.3 0 886 0C836.7 0 787.3 0 738.2 0C689 0 640 0 590.8 0C541.7 0 492.3 0 443 0C393.7 0 344.3 0 295.2 0C246 0 197 0 147.8 0C98.7 0 49.3 0 24.7 0L0 0Z" fill="#5B0A91" stroke-linecap="round" stroke-linejoin="miter"></path></svg>