<svg id="visual" viewBox="0 0 3840 300" width="3840" height="300" xmlns="http://www.w3.org/2000/svg" xmlns:xlink="http://www.w3.org/1999/xlink" version="1.1"><path d="M0 124L45.7 121.5C91.3 119 182.7 114 274.2 119C365.7 124 457.3 139 548.8 136.5C640.3 134 731.7 114 823 104.5C914.3 95 1005.7 96 1097 97.3C1188.3 98.7 1279.7 100.3 1371.2 114.8C1462.7 129.3 1554.3 156.7 1645.8 171.7C1737.3 186.7 1828.7 189.3 1920 176.8C2011.3 164.3 2102.7 136.7 2194.2 125.7C2285.7 114.7 2377.3 120.3 2468.8 134.2C2560.3 148 2651.7 170 2743 171.5C2834.3 173 2925.7 154 3017 153C3108.3 152 3199.7 169 3291.2 172.8C3382.7 176.7 3474.3 167.3 3565.8 153.8C3657.3 140.3 3748.7 122.7 3794.3 113.8L3840 105L3840 301L3794.3 301C3748.7 301 3657.3 301 3565.8 301C3474.3 301 3382.7 301 3291.2 301C3199.7 301 3108.3 301 3017 301C2925.7 301 2834.3 301 2743 301C2651.7 301 2560.3 301 2468.8 301C2377.3 301 2285.7 301 2194.2 301C2102.7 301 2011.3 301 1920 301C1828.7 301 1737.3 301 1645.8 301C1554.3 301 1462.7 301 1371.2 301C1279.7 301 1188.3 301 1097 301C1005.7 301 914.3 301 823 301C731.7 301 640.3 301 548.8 301C457.3 301 365.7 301 274.2 301C182.7 301 91.3 301 45.7 301L0 301Z" fill="#5B0A91" stroke-linecap="round" stroke-linejoin="miter"></path></svg>